<svg width="69" height="69" fill="none" xmlns="http://www.w3.org/2000/svg"><path d="M39.167 49.667a.5.5 0 0 0 0 1v-1ZM48.5 45.5H48h.5Zm0-18.667h.5a.5.5 0 0 0-.146-.354l-.354.354ZM39.167 17.5l.354-.354a.5.5 0 0 0-.354-.146v.5ZM20.5 22.167H20h.5Zm0 23.333H20h.5Zm4.667 4.667v-.5.5Zm4.666.5a.5.5 0 0 0 0-1v1ZM27.5 33.834l-.354-.354a.5.5 0 0 0 .354.854v-.5Zm7-7 .354-.354a.5.5 0 0 0-.708 0l.354.354Zm7 7v.5a.5.5 0 0 0 .354-.854l-.354.354ZM34 52.5a.5.5 0 0 0 1 0h-1Zm33.5-18c0 18.225-14.775 33-33 33v1c18.778 0 34-15.222 34-34h-1Zm-33 33c-18.225 0-33-14.775-33-33h-1c0 18.778 15.222 34 34 34v-1Zm-33-33c0-18.225 14.775-33 33-33v-1C15.722.5.5 15.722.5 34.5h1Zm33-33c18.225 0 33 14.775 33 33h1c0-18.778-15.222-34-34-34v1Zm4.667 49.167h4.666v-1h-4.666v1Zm4.666 0c1.37 0 2.685-.544 3.654-1.513l-.708-.708a4.167 4.167 0 0 1-2.946 1.221v1Zm3.654-1.513A5.167 5.167 0 0 0 49 45.5h-1a4.167 4.167 0 0 1-1.22 2.947l.707.707ZM49 45.5V26.833h-1V45.5h1Zm-.146-19.02-9.333-9.334-.708.708 9.333 9.333.708-.708ZM39.167 17h-14v1h14v-1Zm-14 0c-.679 0-1.35.134-1.977.393l.382.924A4.167 4.167 0 0 1 25.167 18v-1Zm-1.977.393c-.627.26-1.197.64-1.677 1.12l.707.707a4.165 4.165 0 0 1 1.352-.903l-.382-.924Zm-1.677 1.12c-.48.48-.86 1.05-1.12 1.677l.924.382c.21-.505.517-.965.904-1.351l-.708-.708Zm-1.12 1.677A5.166 5.166 0 0 0 20 22.167h1c0-.547.108-1.09.317-1.595l-.924-.382ZM20 22.167V45.5h1V22.167h-1ZM20 45.5c0 1.37.544 2.685 1.513 3.654l.707-.708A4.167 4.167 0 0 1 21 45.5h-1Zm1.513 3.654a5.167 5.167 0 0 0 3.654 1.513v-1a4.167 4.167 0 0 1-2.947-1.22l-.707.707Zm3.654 1.513h4.666v-1h-4.666v1Zm2.687-16.48 7-7-.708-.707-7 7 .708.708Zm6.292-7 7 7 .708-.707-7-7-.708.707Zm7.354 6.147h-14v1h14v-1Zm-7.5-6.5V52.5h1V26.834h-1Z" fill="#320099"/></svg>