<svg width="339" height="238" fill="none" xmlns="http://www.w3.org/2000/svg"><path d="M252.621 93.37c11.655-6.71 27.186-8.113 38.413-.729-14.016 4.308-26.033 13.357-33.924 25.547-3.026 4.712-5.893 10.263-11.267 12.021-3.344 1.093-7.076.419-10.251-1.085-3.175-1.505-5.897-3.778-8.581-6.026l-.857-.195c6.485-11.659 14.811-22.823 26.467-29.533Z" fill="#F0F0F0"/><path d="M290.909 92.892a53.843 53.843 0 0 0-31.801 7.561 22.85 22.85 0 0 0-5.536 4.492 12.831 12.831 0 0 0-2.854 6.197c-.391 2.119-.541 4.33-1.448 6.319a7.92 7.92 0 0 1-2.028 2.64 8.077 8.077 0 0 1-2.947 1.593c-2.684.868-5.525.735-8.298.51-3.079-.25-6.274-.558-9.222.571-.357.136-.552-.417-.195-.554 5.13-1.963 10.632.254 15.9-.68 2.458-.436 4.798-1.603 6.01-3.843 1.06-1.958 1.217-4.239 1.593-6.387a13.679 13.679 0 0 1 2.562-6.162 21.05 21.05 0 0 1 5.34-4.685 52.006 52.006 0 0 1 14.742-6.43 54.933 54.933 0 0 1 18.298-1.717c.38.029.263.604-.116.575Z" fill="#fff"/><path d="M262.067 98.425a7.739 7.739 0 0 1-.345-5.407 7.865 7.865 0 0 1 3.293-4.34c.322-.204.66.278.338.483a7.28 7.28 0 0 0-3.065 4.04 7.163 7.163 0 0 0 .341 5.032c.156.344-.407.534-.562.192ZM250.772 110.042a15.605 15.605 0 0 0 11.206.073c.358-.135.552.418.195.553a16.224 16.224 0 0 1-11.66-.099c-.356-.141-.095-.667.259-.527ZM278.57 93.208c.155.72.49 1.391.974 1.953a4.518 4.518 0 0 0 1.798 1.264c.358.136.096.662-.259.527-.769-.3-1.45-.78-1.987-1.4a4.95 4.95 0 0 1-1.088-2.152.295.295 0 0 1 .016-.222.31.31 0 0 1 .167-.15.304.304 0 0 1 .379.18Z" fill="#fff"/><path d="M295.688 137.412c-.226-.079-.452-.158-.682-.234a60.19 60.19 0 0 0-9.335-2.395c-.244-.046-.493-.09-.738-.129a63.669 63.669 0 0 0-23.077.5 61.69 61.69 0 0 0-8.88 2.553c-3.991 1.48-8.199 3.397-12.331 3.49-.431.014-.863.002-1.293-.036l-13.373-17.213c-.011-.055-.025-.106-.036-.16l-.566-.663c.145-.066.297-.131.442-.196.084-.039.171-.073.255-.112.057-.024.115-.048.165-.073l.052-.022c.05-.025.1-.043.146-.065.848-.365 1.7-.725 2.557-1.079.004-.003.004-.003.011-.002 6.533-2.684 13.351-4.855 20.287-5.938.209-.033.421-.068.636-.093a58.917 58.917 0 0 1 9.458-.653c1.733.025 3.464.137 5.185.334a43.245 43.245 0 0 1 12.852 3.569c8.108 3.681 14.93 9.874 18.034 17.995.079.207.155.412.231.622Z" fill="#F0F0F0"/><path d="M295.436 137.541c-8.389-7.27-18.892-11.752-30.016-12.811a23.266 23.266 0 0 0-7.167.304 13.199 13.199 0 0 0-6.069 3.257c-1.608 1.46-3.08 3.137-5.02 4.187a8.155 8.155 0 0 1-6.562.431c-2.674-.897-4.861-2.687-6.937-4.511-2.306-2.024-4.668-4.163-7.712-5.01-.369-.103-.186-.66.182-.558 5.296 1.474 8.334 6.504 13.111 8.881 2.229 1.109 4.812 1.564 7.149.494 2.044-.935 3.564-2.663 5.179-4.155a14.054 14.054 0 0 1 5.813-3.402 21.477 21.477 0 0 1 7.13-.575 52.252 52.252 0 0 1 15.702 3.603 54.267 54.267 0 0 1 15.66 9.474c.287.249-.158.638-.443.391Z" fill="#fff"/><path d="M269.023 124.863a7.847 7.847 0 0 1 3.031-4.521 8.067 8.067 0 0 1 5.284-1.513.292.292 0 0 1-.026.585 7.47 7.47 0 0 0-4.918 1.409 7.27 7.27 0 0 0-2.805 4.22c-.086.367-.652.185-.566-.18ZM252.899 127.445a15.35 15.35 0 0 0 8.902 6.7c.369.104.186.661-.182.558a15.97 15.97 0 0 1-9.25-6.991c-.198-.323.333-.589.53-.267ZM285.39 130.48a4.378 4.378 0 0 0 .246 4.211c.202.321-.329.586-.53.267a4.916 4.916 0 0 1-.283-4.658.305.305 0 0 1 .15-.168.313.313 0 0 1 .225-.021.296.296 0 0 1 .192.369Z" fill="#fff"/><path d="M25.68 198.41c1.368-13.224 9.376-26.4 22.054-30.972a60.35 60.35 0 0 0 .955 42.037c2.081 5.185 4.944 10.738 3.217 16.047-1.075 3.303-3.828 5.873-6.935 7.51-3.106 1.637-6.576 2.461-10.003 3.269l-.665.567c-5.74-12.031-9.99-25.234-8.622-38.458Z" fill="#F0F0F0"/><path d="M47.866 167.685c-7.254 8.37-11.645 18.777-12.549 29.743a22.204 22.204 0 0 0 .42 7.051 12.877 12.877 0 0 0 3.402 5.923c1.508 1.56 3.233 2.984 4.33 4.877a7.802 7.802 0 0 1 .54 6.452c-.871 2.646-2.656 4.826-4.476 6.898-2.02 2.301-4.156 4.66-4.97 7.669-.098.365-.667.193-.569-.171 1.415-5.236 6.478-8.304 8.818-13.043 1.092-2.211 1.514-4.76.392-7.044-.982-1.998-2.76-3.467-4.301-5.034a13.756 13.756 0 0 1-3.545-5.67 20.524 20.524 0 0 1-.694-7.008 50.11 50.11 0 0 1 3.418-15.512 53.096 53.096 0 0 1 9.38-15.561c.249-.286.65.146.404.43Z" fill="#fff"/><path d="M35.397 193.88a7.993 7.993 0 0 1-4.638-2.914 7.771 7.771 0 0 1-1.619-5.178.291.291 0 0 1 .097-.197.302.302 0 0 1 .413.011.291.291 0 0 1 .085.202 7.196 7.196 0 0 0 1.507 4.82 7.404 7.404 0 0 0 4.33 2.696c.374.079.197.638-.175.56ZM38.269 209.71a15.162 15.162 0 0 0 6.667-8.866c.1-.365.669-.193.57.171a15.768 15.768 0 0 1-6.958 9.212c-.326.2-.603-.318-.28-.517ZM40.849 177.682a4.577 4.577 0 0 0 4.273-.307c.323-.204.6.314.28.517a5.132 5.132 0 0 1-4.727.351.308.308 0 0 1-.172-.145.298.298 0 0 1-.026-.221.298.298 0 0 1 .372-.195Z" fill="#fff"/><path d="M87.209 190.139c-.198.133-.396.266-.594.404a59.314 59.314 0 0 0-7.47 6.009c-.182.168-.364.34-.54.512a61.715 61.715 0 0 0-13.198 18.642 59.334 59.334 0 0 0-3.142 8.566c-1.14 4.046-2.048 8.521-4.409 11.862-.242.351-.506.688-.79 1.007l-22.009.482c-.05-.023-.101-.042-.152-.066l-.878.059.1-.467c.018-.089.041-.179.06-.268.013-.06.027-.119.036-.174l.013-.055c.01-.054.023-.104.032-.154.201-.889.409-1.779.623-2.669 0-.005 0-.005.005-.01 1.65-6.777 3.89-13.478 7.09-19.632.097-.185.193-.375.3-.56a57.026 57.026 0 0 1 5.04-7.905 50.869 50.869 0 0 1 3.333-3.926 42.607 42.607 0 0 1 10.507-8.113c7.8-4.276 16.903-6.049 25.396-3.728.217.06.43.12.647.184Z" fill="#F0F0F0"/><path d="M87.166 190.415c-10.911 2.383-20.782 8.09-28.21 16.31a22.526 22.526 0 0 0-3.977 5.879 12.746 12.746 0 0 0-.907 6.746c.25 2.139.758 4.298.475 6.46a7.835 7.835 0 0 1-1.163 3.105 7.97 7.97 0 0 1-2.352 2.366c-2.314 1.597-5.071 2.28-7.792 2.856-3.02.639-6.168 1.256-8.658 3.177-.302.233-.65-.242-.35-.474 4.332-3.342 10.25-2.791 15.017-5.187 2.225-1.119 4.12-2.904 4.621-5.393.438-2.177-.083-4.404-.355-6.568a13.593 13.593 0 0 1 .637-6.628 20.785 20.785 0 0 1 3.732-6.008 51.383 51.383 0 0 1 12.216-10.36 54.606 54.606 0 0 1 17.007-6.864c.373-.081.43.502.059.583Z" fill="#fff"/><path d="M61.19 203.939a7.782 7.782 0 0 1-1.922-5.076 7.779 7.779 0 0 1 1.874-5.093c.248-.288.713.077.465.365a7.205 7.205 0 0 0-1.744 4.742 7.207 7.207 0 0 0 1.808 4.718c.25.285-.233.628-.482.344ZM53.8 218.281a15.55 15.55 0 0 0 10.746-3.128c.303-.231.652.243.35.474a16.164 16.164 0 0 1-11.19 3.232c-.381-.033-.286-.611.094-.578ZM75.448 194.238a4.48 4.48 0 0 0 1.507 1.591 4.566 4.566 0 0 0 2.093.696c.383.029.287.607-.093.579a5.112 5.112 0 0 1-2.313-.773 5.009 5.009 0 0 1-1.676-1.749.299.299 0 0 1 .066-.409.305.305 0 0 1 .222-.052.298.298 0 0 1 .194.117Z" fill="#fff"/><path d="m195.322 21.883-118.46 2.2a9.036 9.036 0 0 1-3.89-.802 9.947 9.947 0 0 1-3.219-2.338 11.171 11.171 0 0 1-2.19-3.53 12.141 12.141 0 0 1 0-8.71 11.182 11.182 0 0 1 2.19-3.531 9.96 9.96 0 0 1 3.218-2.341 9.04 9.04 0 0 1 3.89-.804l118.461 2.108a4.966 4.966 0 0 1 2.491.741 6.877 6.877 0 0 1 2.017 1.915 9.659 9.659 0 0 1 1.351 2.804 12.008 12.008 0 0 1 0 6.82 9.667 9.667 0 0 1-1.351 2.805 6.885 6.885 0 0 1-2.017 1.92 4.97 4.97 0 0 1-2.491.743Z" fill="#E4E4E4"/><path d="m123.162 23.223-46.3.86a9.036 9.036 0 0 1-3.89-.802 9.947 9.947 0 0 1-3.219-2.338 11.171 11.171 0 0 1-2.19-3.531 12.001 12.001 0 0 1-.808-4.354c0-.739.066-1.476.198-2.203.128-.71.322-1.407.579-2.083.252-.665.567-1.305.94-1.912.37-.603.799-1.169 1.28-1.69.468-.51.987-.972 1.549-1.378a9.534 9.534 0 0 1 1.732-.994 9.061 9.061 0 0 1 3.829-.772l46.3.824v20.373Z" fill="#320099"/><path d="M123.703 24.512a1.974 1.974 0 0 1-.912-.203 2.322 2.322 0 0 1-.747-.59 2.856 2.856 0 0 1-.506-.89 3.268 3.268 0 0 1-.186-1.095V3.904a3.274 3.274 0 0 1 .186-1.095c.113-.324.285-.626.506-.89.205-.245.459-.445.747-.588a1.974 1.974 0 0 1 1.821.037c.287.155.539.365.741.617.218.27.387.574.499.9.122.353.184.722.183 1.094v17.68a3.31 3.31 0 0 1-.183 1.094 2.967 2.967 0 0 1-.499.901 2.425 2.425 0 0 1-.741.618 2.02 2.02 0 0 1-.909.24Z" fill="#3F3D56"/><path d="M37.231 22.335a2.551 2.551 0 0 1-1.03-.2 2.726 2.726 0 0 1-1.595-1.854 2.969 2.969 0 0 1-.093-.742V6.6c0-.25.031-.499.093-.741.06-.235.15-.46.269-.672.235-.421.58-.773 1-1.018a2.556 2.556 0 0 1 2.048-.261c.232.069.453.168.658.295l10.497 6.465.038.023.038.024.037.025.037.026a2.685 2.685 0 0 1 .81.916 2.944 2.944 0 0 1 .338 1.2v.181c0 .244-.03.487-.089.725a2.82 2.82 0 0 1-.256.658 2.696 2.696 0 0 1-.957 1.011l-10.492 6.476a2.746 2.746 0 0 1-.66.296 2.6 2.6 0 0 1-.69.105Z" fill="#CACACA"/><path d="M195.299 78.028 76.826 93.854a8.497 8.497 0 0 1-3.834-.336 8.393 8.393 0 0 1-3.276-1.988 9.567 9.567 0 0 1-2.19-3.279 11.279 11.279 0 0 1-.807-4.26 12.949 12.949 0 0 1 2.998-8.232 11.749 11.749 0 0 1 3.218-2.71 9.832 9.832 0 0 1 3.89-1.253L195.3 60.28a4.604 4.604 0 0 1 2.491.453c.795.402 1.485.98 2.017 1.687a8.43 8.43 0 0 1 1.352 2.648 11.18 11.18 0 0 1 .494 3.353 12.331 12.331 0 0 1-.494 3.467 11.043 11.043 0 0 1-1.352 2.96A8.164 8.164 0 0 1 197.79 77a5.523 5.523 0 0 1-2.491 1.028Z" fill="#E4E4E4"/><path d="M176.671 80.516 76.826 93.853a8.498 8.498 0 0 1-3.834-.335 8.393 8.393 0 0 1-3.276-1.989 9.567 9.567 0 0 1-2.19-3.278 11.279 11.279 0 0 1-.807-4.258c0-.746.066-1.49.197-2.225a12.928 12.928 0 0 1 2.8-6.01c.468-.563.986-1.084 1.549-1.555a11.13 11.13 0 0 1 1.732-1.195c.593-.331 1.22-.602 1.869-.809a9.53 9.53 0 0 1 1.958-.403l99.847-9.707v18.427Z" fill="#320099"/><path d="M37.19 96.664a2.561 2.561 0 0 1-.692-.005 2.386 2.386 0 0 1-.663-.202 2.297 2.297 0 0 1-1-.904c-.12-.2-.21-.417-.27-.643a2.839 2.839 0 0 1-.092-.728v-12.94c0-.253.03-.506.093-.752a3.201 3.201 0 0 1 1.932-2.192 2.72 2.72 0 0 1 .693-.165 2.423 2.423 0 0 1 1.35.245l10.497 5.257.038.019.038.02.037.021.037.021a2.266 2.266 0 0 1 .777.77c.098.16.177.332.236.51a2.725 2.725 0 0 1 .137.885 3.179 3.179 0 0 1-.748 2.037c-.163.19-.348.362-.552.51l-10.497 7.68a3.242 3.242 0 0 1-.66.371 2.837 2.837 0 0 1-.69.185Z" fill="#CACACA"/><path d="M175.951 67.28a5.124 5.124 0 0 1 2.182.162 5.07 5.07 0 0 1 1.908 1.056c.55.485.985 1.083 1.275 1.751.29.669.427 1.392.403 2.118l16.749 6.347-7.588 5.338-14.743-6.846a5.108 5.108 0 0 1-3.228-1.585 4.956 4.956 0 0 1-1.344-3.296 4.953 4.953 0 0 1 1.219-3.343 5.103 5.103 0 0 1 3.167-1.702Z" fill="#FFB6B6"/><path d="m239.549 64.164 2.834 5.071a14.53 14.53 0 0 1-5.022 8.213c-4.338 3.602-27.023 17.017-27.023 17.017L181.7 80.312l5.01-6.554 22.483 7.418 12.684-11.791 17.672-5.221Z" fill="#3F3D56"/><path d="m242.151 143.694-2.961.549 17.856 93.291 2.961-.55-17.856-93.29ZM212.676 236.984l2.961.55 17.856-93.291-2.961-.549-17.856 93.29Z" fill="#CACACA"/><path d="M234.28 148.089c12.344 0 22.35-3.21 22.35-7.169 0-3.96-10.006-7.17-22.35-7.17-12.343 0-22.35 3.21-22.35 7.17 0 3.959 10.007 7.169 22.35 7.169Z" fill="#CACACA"/><path d="m186.81 231.658-6.157-.001-2.929-23.381 9.087.001-.001 23.381Z" fill="#FFB6B6"/><path d="m188.38 237.534-19.854-.001v-.247c0-2.018.815-3.953 2.264-5.379a7.79 7.79 0 0 1 5.464-2.229l12.127.001-.001 7.855Z" fill="#2F2E41"/><path d="m216.701 199.845-5.379 2.951-14.123-19.018 7.938-4.356 11.564 20.423Z" fill="#FFB6B6"/><path d="m220.979 204.224-17.342 9.517-.122-.216a7.504 7.504 0 0 1-.684-5.784 7.633 7.633 0 0 1 3.671-4.565l10.592-5.813 3.885 6.861ZM251.674 123.392s2.986 9.106-15.332 20.622l-23.592 23.142-24.513 57.726-14.553-6.423 22.38-58.809 13.087-22.559.38-12.24 3.219-8.629 23.354-8.158 15.57 15.328Z" fill="#2F2E41"/><path d="m203.774 199.466-24.348-36.139a8.476 8.476 0 0 1-1.401-5.641 8.535 8.535 0 0 1 2.568-5.227l24.654-23.741 4.18-4.115h9.354l-4.386 15.931-15.217 16.981 17.591 30.644-12.995 11.307Z" fill="#2F2E41"/><path d="m221.669 73.877 7.337-10.337 16.765-1.328s14.412 13.368 11.79 30.97c-2.623 17.601-5.134 34.907-5.134 34.907s-26.117-18.295-39.677-11.867l8.919-42.345Z" fill="#3F3D56"/><path d="M216.689 127.804c.13-.716.418-1.394.843-1.989a5.023 5.023 0 0 1 1.618-1.45 5.112 5.112 0 0 1 4.259-.35l11.391-13.654 2.758 8.771-11.24 11.621a5.035 5.035 0 0 1-2.544 2.518 5.151 5.151 0 0 1-3.601.218 5.067 5.067 0 0 1-2.84-2.191 4.932 4.932 0 0 1-.644-3.494Z" fill="#FFB6B6"/><path d="m231.029 126.917-5.017-7.134 14.246-18.699-7.339-15.482.535-18.415 6.064-1.102.075.037a14.737 14.737 0 0 1 6.459 7.406c1.513 3.723 4.89 17.7 6.769 25.7a9.184 9.184 0 0 1-.118 4.698 9.287 9.287 0 0 1-2.429 4.045l-19.245 18.946Z" fill="#3F3D56"/><path d="M243.818 54.493c3.265-5.407 1.459-12.395-4.033-15.609-5.492-3.214-12.591-1.436-15.856 3.97-3.265 5.407-1.459 12.395 4.033 15.61 5.492 3.213 12.591 1.436 15.856-3.97Z" fill="#FFB6B6"/><path d="M241.27 44.585c-.122 1.653 1.453 7.751 1.453 7.751 1.155-1.912-.659 4.443-.659 4.443 18.95-13.004 3.977-26.068-1.881-24.907.123-1.654-4.654-.999-4.654-.999-1.82-2.79-5.809.914-5.809.914l.769-1.275c-3.097.776-6.158 10.199-6.158 10.199 1.05 4.065 17.061 2.22 16.939 3.874Z" fill="#2F2E41"/><path d="M176.226 81.753a1.405 1.405 0 0 1-.748-.099 1.655 1.655 0 0 1-.614-.465 2.332 2.332 0 0 1-.417-.758 3.078 3.078 0 0 1-.15-.976v-16.15c-.001-.342.05-.683.15-1.01a3.07 3.07 0 0 1 .417-.854 2.32 2.32 0 0 1 .614-.606c.223-.15.48-.244.748-.272.257-.025.515.02.747.13.238.116.446.282.608.489.183.23.322.49.41.769.102.314.153.643.151.973v16.028c0 .341-.051.681-.151 1.008-.092.306-.23.597-.41.863a2.434 2.434 0 0 1-.608.628 1.712 1.712 0 0 1-.747.302Z" fill="#3F3D56"/><path d="M331.699 238H6.596a.607.607 0 0 1-.421-.173.586.586 0 0 1 .421-1.005H331.7a.6.6 0 0 1 .423.173.583.583 0 0 1 0 .832.6.6 0 0 1-.423.173Z" fill="#CACACA"/></svg>