<?xml version="1.0" encoding="utf-8"?>
<!-- Generator: Adobe Illustrator 25.4.1, SVG Export Plug-In . SVG Version: 6.00 Build 0)  -->
<svg version="1.1" id="Calque_1" xmlns="http://www.w3.org/2000/svg" xmlns:xlink="http://www.w3.org/1999/xlink" x="0px" y="0px"
	 viewBox="0 0 150 32" style="enable-background:new 0 0 150 32;" xml:space="preserve">
<style type="text/css">
	.st0{fill:#E3431A;}
	.st1{fill:#FFFFFF;}
</style>
<path class="st0" d="M23.6,2.1c0.6,0,1,0.4,1,1v4.3c0,0.6-0.4,1-1,1H9.4c-0.6,0-1,0.4-1,1v13.3c0,0.6,0.4,1,1,1h14.2
	c0.6,0,1,0.4,1,1v4.3c0,0.6-0.4,1-1,1H8.5c-0.6,0-1-0.4-1-1v-3.4c0-0.6-0.4-1-1-1H3.1c-0.6,0-1-0.4-1-1V8.4c0-0.6,0.4-1,1-1h3.4
	c0.6,0,1-0.4,1-1V3.1c0-0.6,0.4-1,1-1L23.6,2.1L23.6,2.1z M23.6,0H8.5C6.8,0,5.4,1.4,5.4,3.1v2.3H3.1C1.4,5.4,0,6.8,0,8.5v15.1
	c0,1.7,1.4,3.1,3.1,3.1h2.3v2.3c0,1.7,1.4,3.1,3.1,3.1h15.1c1.7,0,3.1-1.4,3.1-3.1v-4.3c0-1.7-1.4-3.1-3.1-3.1H10.5V10.4h13.1
	c1.7,0,3.1-1.4,3.1-3.1V3.1C26.7,1.4,25.3,0,23.6,0z"/>
<path class="st1" d="M36.9,13.4c0.5-0.3,1-0.4,1.5-0.4c0.8,0,1.5,0.3,2.1,0.8l0.2,0.1l0.8-1l-0.2-0.1c-0.8-0.7-1.8-1-3-1
	c-0.8,0-1.5,0.2-2.2,0.6c-0.7,0.4-1.2,0.9-1.6,1.6c-0.4,0.7-0.6,1.4-0.6,2.3c0,0.8,0.2,1.6,0.6,2.3c0.4,0.7,0.9,1.2,1.6,1.6
	c0.7,0.4,1.5,0.6,2.3,0.6c0.5,0,1-0.1,1.5-0.3c0.5-0.2,0.9-0.4,1.3-0.7l0.2-0.1l-0.8-0.9l-0.2,0.1c-0.6,0.4-1.3,0.7-2,0.7
	c-0.6,0-1.1-0.1-1.6-0.4c-0.5-0.3-0.9-0.7-1.1-1.1c-0.3-0.5-0.4-1-0.4-1.6s0.1-1.1,0.4-1.6C36,14.1,36.4,13.7,36.9,13.4z"/>
<path class="st1" d="M57.7,12.3c-0.7-0.4-1.5-0.6-2.3-0.6c-0.8,0-1.6,0.2-2.3,0.6c-0.7,0.4-1.2,0.9-1.6,1.6
	c-0.4,0.7-0.6,1.4-0.6,2.2c0,0.8,0.2,1.6,0.6,2.3c0.4,0.7,0.9,1.2,1.6,1.6c0.7,0.4,1.5,0.6,2.3,0.6c0.8,0,1.6-0.2,2.3-0.6
	c0.7-0.4,1.2-0.9,1.6-1.6c0.4-0.7,0.6-1.4,0.6-2.3c0-0.8-0.2-1.6-0.6-2.2C59,13.2,58.4,12.7,57.7,12.3z M55.4,19.3
	c-0.6,0-1.1-0.1-1.6-0.4c-0.5-0.3-0.8-0.7-1.1-1.2c-0.3-0.5-0.4-1-0.4-1.6c0-0.5,0.1-1.1,0.4-1.6s0.6-0.9,1.1-1.2
	c0.5-0.3,1-0.4,1.6-0.4c0.6,0,1.1,0.1,1.6,0.4c0.5,0.3,0.8,0.7,1.1,1.2c0.3,0.5,0.4,1,0.4,1.6c0,0.6-0.1,1.1-0.4,1.6
	c-0.3,0.5-0.7,0.9-1.1,1.2C56.5,19.2,56,19.3,55.4,19.3z"/>
<path class="st1" d="M74.9,16.3c-0.4-0.3-1-0.6-1.8-0.9c-0.6-0.2-1-0.4-1.3-0.6c-0.2-0.2-0.4-0.4-0.4-0.8c0-0.3,0.1-0.6,0.4-0.8
	c0.3-0.2,0.6-0.3,1-0.3c0.3,0,0.6,0.1,1,0.2c0.3,0.1,0.5,0.3,0.7,0.5l0.2,0.3l0.7-1.1l-0.1-0.1c-0.7-0.6-1.5-1-2.6-1
	c-0.8,0-1.4,0.2-1.9,0.7c-0.5,0.4-0.8,1-0.8,1.8c0,0.6,0.2,1.1,0.6,1.5c0.4,0.4,0.9,0.7,1.6,0.9c0.5,0.2,0.9,0.3,1.2,0.4
	c0.2,0.1,0.4,0.2,0.6,0.4c0.2,0.2,0.2,0.4,0.2,0.7c0,0.4-0.1,0.7-0.4,0.9c-0.3,0.2-0.7,0.3-1.2,0.3c-0.4,0-0.8-0.1-1.1-0.2
	c-0.4-0.2-0.7-0.4-0.9-0.6l-0.2-0.2l-0.7,1l0.1,0.1c0.3,0.4,0.8,0.7,1.3,0.9c0.5,0.2,1,0.3,1.6,0.3c0.9,0,1.7-0.3,2.2-0.7
	c0.5-0.5,0.8-1.2,0.8-2C75.6,17.2,75.3,16.7,74.9,16.3z"/>
<path class="st1" d="M98.3,12.6c-0.5-0.5-1.2-0.7-2-0.7c-0.7,0-1.4,0.2-2,0.5c-0.5,0.3-0.8,0.6-1.2,1c-0.2-0.4-0.4-0.7-0.8-1
	c-0.5-0.4-1.1-0.6-1.8-0.6c-0.8,0-1.5,0.2-2.1,0.6c-0.4,0.2-0.8,0.6-1.1,0.9l-0.1-1.3h-1.3v8.5h1.4v-4.6c0-0.5,0.1-1,0.4-1.5
	c0.3-0.4,0.6-0.8,1-1c0.4-0.3,0.9-0.4,1.4-0.4c0.5,0,0.9,0.2,1.1,0.5c0.3,0.3,0.4,0.7,0.4,1.1v5.9h1.4V16c0-0.5,0.2-1,0.4-1.4
	c0.3-0.4,0.6-0.8,1-1c0.4-0.3,0.9-0.4,1.4-0.4c0.5,0,0.9,0.2,1.1,0.5c0.3,0.3,0.4,0.7,0.4,1.1v5.9h1.4v-6.1
	C99.1,13.7,98.8,13.1,98.3,12.6z"/>
<path class="st1" d="M111.8,12.1h-1.4v8.5h1.4V12.1z"/>
<path class="st1" d="M111.1,8.3c-0.3,0-0.5,0.1-0.7,0.3c-0.2,0.2-0.3,0.4-0.3,0.7c0,0.3,0.1,0.5,0.3,0.7c0.2,0.2,0.4,0.3,0.7,0.3
	c0.3,0,0.5-0.1,0.7-0.3c0.2-0.2,0.3-0.4,0.3-0.7c0-0.3-0.1-0.5-0.3-0.6C111.6,8.4,111.4,8.3,111.1,8.3z"/>
<path class="st1" d="M130,13.2c-0.3-0.4-0.7-0.7-1.1-0.9c-0.6-0.4-1.3-0.6-2-0.6c-0.9,0-1.7,0.2-2.4,0.5c-0.7,0.4-1.3,0.9-1.7,1.6
	c-0.4,0.7-0.6,1.5-0.6,2.4c0,0.9,0.2,1.6,0.6,2.3c0.4,0.7,0.9,1.2,1.6,1.6c0.7,0.4,1.4,0.6,2.2,0.6c0.8,0,1.5-0.2,2.2-0.6
	c0.4-0.2,0.8-0.5,1.1-0.9v1.3h1.4v-8.5h-1.3L130,13.2z M126.8,13c0.8,0,1.4,0.2,2,0.7c0.6,0.5,1,1.1,1.1,1.7v1.1
	c-0.1,0.8-0.4,1.5-1,2c-0.6,0.5-1.3,0.8-2.2,0.8c-0.6,0-1.1-0.1-1.6-0.4s-0.9-0.7-1.1-1.2c-0.3-0.5-0.4-1-0.4-1.6
	c0-0.6,0.1-1.2,0.4-1.7c0.3-0.5,0.7-0.8,1.1-1.1C125.7,13.1,126.3,13,126.8,13z"/>
<path class="st1" d="M150,20.6v-6.1c0-0.8-0.3-1.4-0.8-1.9c-0.5-0.5-1.2-0.7-2-0.7c-0.8,0-1.5,0.2-2.2,0.6c-0.4,0.2-0.8,0.5-1,0.9
	l-0.1-1.2h-1.3v8.5h1.4v-4.5c0-0.6,0.1-1.1,0.4-1.5c0.3-0.4,0.6-0.8,1-1c0.4-0.2,0.9-0.4,1.4-0.4c0.5,0,0.9,0.2,1.2,0.5
	c0.3,0.3,0.4,0.7,0.5,1.2v5.8H150z"/>
</svg>
