<svg width="274" height="59" viewBox="0 0 274 59" fill="none" xmlns="http://www.w3.org/2000/svg">
<path d="M43.09 3.77C44.1 3.77 44.91 4.59 44.91 5.59V13.5C44.91 14.51 44.09 15.32 43.09 15.32H17.15C16.14 15.32 15.33 16.14 15.33 17.14V41.4C15.33 42.41 16.15 43.22 17.15 43.22H43.09C44.1 43.22 44.91 44.04 44.91 45.04V52.95C44.91 53.96 44.09 54.77 43.09 54.77H15.46C14.45 54.77 13.64 53.95 13.64 52.95V46.73C13.64 45.72 12.82 44.91 11.82 44.91H5.6C4.59 44.91 3.78 44.09 3.78 43.09V15.46C3.78 14.45 4.6 13.64 5.6 13.64H11.82C12.83 13.64 13.64 12.82 13.64 11.82V5.6C13.64 4.59 14.46 3.78 15.46 3.78H43.09V3.77ZM43.09 0H15.46C12.37 0 9.86 2.51 9.86 5.6V9.87H5.6C2.51 9.87 0 12.38 0 15.47V43.11C0 46.2 2.51 48.71 5.6 48.71H9.87V52.98C9.87 56.07 12.38 58.58 15.47 58.58H43.11C46.2 58.58 48.71 56.07 48.71 52.98V45.07C48.71 41.98 46.2 39.47 43.11 39.47H19.1V19.1H43.09C46.18 19.1 48.69 16.59 48.69 13.5V5.6C48.69 2.51 46.18 0 43.09 0Z" fill="white"/>
<path d="M67.34 24.59C68.19 24.08 69.13 23.82 70.16 23.82C71.54 23.82 72.83 24.29 74.01 25.2L74.34 25.45L75.78 23.6L75.47 23.34C73.99 22.13 72.17 21.51 70.05 21.51C68.6 21.51 67.24 21.86 66.01 22.56C64.77 23.26 63.78 24.23 63.05 25.46C62.33 26.69 61.96 28.08 61.96 29.61C61.96 31.13 62.32 32.53 63.03 33.75C63.74 34.98 64.74 35.96 65.99 36.65C67.24 37.35 68.66 37.7 70.2 37.7C71.15 37.7 72.08 37.54 72.99 37.23C73.9 36.91 74.72 36.46 75.43 35.88L75.77 35.61L74.25 33.91L73.95 34.14C72.85 34.96 71.63 35.37 70.32 35.37C69.24 35.37 68.26 35.11 67.39 34.6C66.52 34.09 65.82 33.38 65.32 32.51C64.82 31.64 64.56 30.66 64.56 29.61C64.56 28.56 64.81 27.58 65.32 26.69C65.8 25.82 66.49 25.11 67.34 24.59Z" fill="white"/>
<path d="M105.45 22.47C104.19 21.75 102.78 21.38 101.25 21.38C99.72 21.38 98.32 21.75 97.05 22.47C95.79 23.19 94.78 24.2 94.06 25.45C93.33 26.7 92.97 28.08 92.97 29.55C92.97 31.1 93.33 32.51 94.04 33.75C94.75 34.99 95.75 35.97 97 36.67C98.25 37.37 99.67 37.72 101.21 37.72C102.76 37.72 104.18 37.35 105.43 36.63C106.68 35.91 107.68 34.91 108.4 33.68C109.13 32.44 109.49 31.05 109.49 29.56C109.49 28.09 109.13 26.71 108.42 25.46C107.71 24.2 106.71 23.19 105.45 22.47ZM101.21 35.38C100.19 35.38 99.23 35.12 98.37 34.61C97.51 34.1 96.82 33.39 96.32 32.5C95.82 31.61 95.57 30.63 95.57 29.58C95.57 28.58 95.82 27.62 96.31 26.73C96.8 25.84 97.49 25.11 98.35 24.56C99.21 24.02 100.17 23.74 101.22 23.74C102.24 23.74 103.2 24 104.06 24.51C104.92 25.02 105.61 25.74 106.11 26.63C106.61 27.53 106.86 28.52 106.86 29.57C106.86 30.62 106.61 31.6 106.11 32.49C105.61 33.38 104.92 34.09 104.06 34.6C103.19 35.13 102.24 35.38 101.21 35.38Z" fill="white"/>
<path d="M136.74 29.88C135.98 29.29 134.87 28.75 133.46 28.29C132.37 27.9 131.56 27.52 131.04 27.15C130.6 26.84 130.39 26.38 130.39 25.74C130.39 25.13 130.63 24.67 131.13 24.33C131.68 23.96 132.27 23.78 132.93 23.78C133.51 23.8 134.1 23.92 134.67 24.13C135.21 24.33 135.64 24.64 135.97 25.08L136.33 25.56L137.62 23.53L137.38 23.3C136.18 22.12 134.59 21.53 132.68 21.53C131.28 21.53 130.1 21.94 129.19 22.74C128.26 23.56 127.79 24.64 127.79 25.97C127.79 27.11 128.15 28.04 128.88 28.73C129.56 29.39 130.53 29.93 131.77 30.35C132.76 30.67 133.49 30.93 133.92 31.11C134.31 31.27 134.67 31.53 134.98 31.87C135.26 32.18 135.4 32.6 135.4 33.16C135.4 33.95 135.14 34.51 134.6 34.87C134.02 35.26 133.29 35.46 132.42 35.46C131.73 35.46 131.05 35.31 130.4 35.03C129.75 34.74 129.19 34.35 128.72 33.86L128.37 33.5L127.07 35.33L127.27 35.57C127.87 36.3 128.66 36.85 129.61 37.2C130.54 37.54 131.52 37.71 132.52 37.71C134.25 37.71 135.61 37.25 136.55 36.35C137.5 35.44 137.98 34.24 137.98 32.78C138 31.5 137.58 30.52 136.74 29.88Z" fill="white"/>
<path d="M179.55 23.08C178.64 22.2 177.43 21.76 175.95 21.76C174.63 21.76 173.39 22.08 172.26 22.72C171.41 23.2 170.71 23.82 170.15 24.59C169.87 23.9 169.4 23.3 168.74 22.81C167.82 22.12 166.71 21.77 165.44 21.77C164.07 21.77 162.78 22.12 161.61 22.81C160.85 23.26 160.2 23.82 159.69 24.49L159.58 22.19H157.23V37.74H159.83V29.4C159.83 28.45 160.07 27.55 160.53 26.74C160.99 25.93 161.63 25.28 162.41 24.82C163.19 24.36 164.05 24.12 164.93 24.12C165.85 24.17 166.54 24.44 167.02 24.97C167.51 25.5 167.77 26.16 167.82 26.95V37.72H170.42V29.27C170.47 28.34 170.73 27.48 171.21 26.7C171.69 25.92 172.32 25.29 173.09 24.82C173.85 24.36 174.69 24.13 175.57 24.13C176.49 24.18 177.17 24.45 177.63 24.97C178.11 25.5 178.37 26.16 178.41 26.95V37.72H181.01V26.56C180.94 25.12 180.45 23.95 179.55 23.08Z" fill="white"/>
<path d="M204.19 22.17H201.59V37.72H204.19V22.17Z" fill="white"/>
<path d="M202.94 15.2C202.48 15.2 202.08 15.36 201.74 15.66C201.39 15.98 201.21 16.38 201.21 16.85C201.21 17.32 201.38 17.72 201.73 18.05C202.07 18.38 202.48 18.54 202.94 18.54C203.4 18.54 203.8 18.38 204.13 18.07C204.47 17.75 204.64 17.34 204.64 16.85C204.64 16.38 204.47 15.98 204.14 15.67C203.8 15.36 203.4 15.2 202.94 15.2Z" fill="white"/>
<path d="M237.43 24.22C236.9 23.55 236.24 22.97 235.46 22.5C234.29 21.78 233.06 21.42 231.78 21.42C230.19 21.42 228.74 21.75 227.47 22.41C226.19 23.07 225.17 24.03 224.44 25.26C223.71 26.49 223.35 27.96 223.35 29.63C223.35 31.2 223.7 32.62 224.4 33.84C225.1 35.07 226.06 36.03 227.27 36.71C228.47 37.38 229.82 37.72 231.29 37.72C232.74 37.72 234.1 37.37 235.33 36.67C236.13 36.22 236.81 35.7 237.35 35.11V37.42H239.95V21.87H237.57L237.43 24.22ZM231.63 23.75C233.01 23.75 234.25 24.19 235.32 25.05C236.38 25.9 237.06 26.98 237.35 28.24V30.29C237.25 31.79 236.68 32.99 235.61 33.95C234.54 34.9 233.21 35.39 231.67 35.39C230.65 35.39 229.69 35.13 228.81 34.6C227.93 34.07 227.23 33.36 226.71 32.47C226.2 31.59 225.94 30.61 225.94 29.55C225.94 28.4 226.19 27.37 226.69 26.5C227.19 25.63 227.88 24.95 228.73 24.47C229.61 23.99 230.58 23.75 231.63 23.75Z" fill="white"/>
<path d="M273.95 37.72V26.56C273.9 25.15 273.4 23.99 272.47 23.1C271.54 22.21 270.33 21.76 268.87 21.76C267.42 21.76 266.08 22.11 264.88 22.81C264.12 23.25 263.49 23.79 263.01 24.43L262.91 22.16H260.56V37.71H263.16V29.4C263.16 28.38 263.4 27.45 263.87 26.66C264.35 25.86 264.98 25.23 265.75 24.79C266.53 24.35 267.39 24.13 268.3 24.13C269.27 24.15 269.99 24.42 270.49 24.96C271 25.51 271.27 26.2 271.32 27.07V37.72H273.95Z" fill="white"/>
</svg>
