<svg width="49" height="59" viewBox="0 0 49 59" fill="none" xmlns="http://www.w3.org/2000/svg">
<path d="M43.09 3.77C44.1 3.77 44.91 4.59 44.91 5.59V13.5C44.91 14.51 44.09 15.32 43.09 15.32H17.15C16.14 15.32 15.33 16.14 15.33 17.14V41.4C15.33 42.41 16.15 43.22 17.15 43.22H43.09C44.1 43.22 44.91 44.04 44.91 45.04V52.95C44.91 53.96 44.09 54.77 43.09 54.77H15.46C14.45 54.77 13.64 53.95 13.64 52.95V46.73C13.64 45.72 12.82 44.91 11.82 44.91H5.6C4.59 44.91 3.78 44.09 3.78 43.09V15.46C3.78 14.45 4.6 13.64 5.6 13.64H11.82C12.83 13.64 13.64 12.82 13.64 11.82V5.6C13.64 4.59 14.46 3.78 15.46 3.78H43.09V3.77ZM43.09 0H15.46C12.37 0 9.86 2.51 9.86 5.6V9.87H5.6C2.51 9.87 0 12.38 0 15.47V43.11C0 46.2 2.51 48.71 5.6 48.71H9.87V52.98C9.87 56.07 12.38 58.58 15.47 58.58H43.11C46.2 58.58 48.71 56.07 48.71 52.98V45.07C48.71 41.98 46.2 39.47 43.11 39.47H19.1V19.1H43.09C46.18 19.1 48.69 16.59 48.69 13.5V5.6C48.69 2.51 46.18 0 43.09 0Z" fill="#E3431A"/>
</svg>
